<svg width="88" height="88" viewBox="0 0 88 88" fill="none" xmlns="http://www.w3.org/2000/svg">
<g clip-path="url(#clip0_2937_149)">
<path d="M72.8098 57.1513C72.8113 56.4869 72.6278 55.8361 72.2789 55.2703L68.8962 49.8248C68.4746 48.9875 68.2561 48.0623 68.2591 47.1249V30.3482C68.2591 19.4571 59.4309 10.6289 48.5398 10.6289H39.4385C28.5473 10.6289 19.7192 19.4571 19.7192 30.3482V47.1249C19.7223 48.0623 19.5038 48.9876 19.082 49.8248L15.6994 55.2703C15.3505 55.8361 15.1669 56.4869 15.1685 57.1513C15.176 59.1006 16.7537 60.678 18.7027 60.6856H69.2752C71.2246 60.678 72.8022 59.1004 72.8098 57.1513Z" fill="#88B337"/>
<path d="M48.5399 10.6289L56.1242 0.0108643H31.8544L39.4387 10.6289V13.6627H48.5399V10.6289Z" fill="#88B337"/>
<path d="M72.2788 55.2703L68.8962 49.8248C68.4746 48.9874 68.2561 48.0622 68.259 47.1248V30.3481C68.2697 25.9552 66.812 21.6838 64.1181 18.2131C60.068 40.5264 45.8095 53.3894 32.4155 60.6855H69.2755C71.2352 60.6931 72.8311 59.111 72.8386 57.1497C72.8417 56.4852 72.6582 55.8345 72.3093 55.2703H72.2788Z" fill="#6B962A"/>
<path d="M51.5735 33.382V32.4112C51.5659 29.6004 49.2875 27.3222 46.4767 27.3145H45.506V24.2807H42.4722V27.3145H41.5015C38.6862 27.3053 36.3971 29.5791 36.388 32.3944C36.3805 34.5316 37.7077 36.446 39.7116 37.1892L42.4722 38.2206V43.9999H41.5015C40.3623 43.9999 39.4385 43.076 39.4385 41.9368V40.9661H36.4047V41.9368C36.4123 44.7477 38.6906 47.0259 41.5015 47.0336H46.4769C49.2922 47.0427 51.5812 44.769 51.5903 41.9537C51.5979 39.8164 50.2707 37.9021 48.2668 37.1589L45.5061 36.1275V30.3482H46.4769C47.6161 30.3482 48.5399 31.272 48.5399 32.4112V33.382H51.5735ZM47.2049 39.9955C48.0059 40.3064 48.5352 41.0771 48.5397 41.9372C48.5397 43.0764 47.6159 44.0002 46.4767 44.0002H45.506V39.3586L47.2049 39.9955ZM42.4724 34.9899L40.7734 34.3527C39.9725 34.0418 39.4431 33.2711 39.4386 32.411C39.4386 31.2719 40.3625 30.348 41.5016 30.348H42.4724V34.9899Z" fill="white"/>
<path d="M74.3265 15.1794C73.8107 12.0667 71.3717 9.62768 68.259 9.11188C71.3717 8.59609 73.8107 6.15702 74.3265 3.04437C74.8423 6.15702 77.2814 8.59609 80.394 9.11188C77.2814 9.62768 74.8423 12.0669 74.3265 15.1794Z" fill="#FDB62F"/>
<path d="M6.06751 45.5168C5.55171 42.4043 3.11264 39.965 0 39.4494C3.11264 38.9336 5.55171 36.4945 6.06751 33.3819C6.5833 36.4945 9.02237 38.9336 12.135 39.4494C9.02237 39.965 6.58313 42.4043 6.06751 45.5168Z" fill="#FDB62F"/>
<path d="M87.3261 52.9344C86.0807 50.838 83.405 50.0964 81.2586 51.2507L59.7342 60.4429C59.3551 60.6036 58.9471 60.6871 58.5359 60.6856H31.8542C30.178 60.6856 28.8204 59.3279 28.8204 57.6518C28.8204 55.9757 30.178 54.618 31.8542 54.618H43.9892C49.0162 54.618 53.0904 50.5438 53.0904 45.5168H27.8497C23.6661 45.5199 19.7102 47.4236 17.0951 50.6893L7.58429 62.2023L18.2934 81.8306L59.5069 71.9254C61.2877 71.5143 63.0109 70.8834 64.6339 70.0445L85.87 59.1684C87.983 57.8414 88.6322 55.061 87.3261 52.9344Z" fill="#FEC9A3"/>
<path d="M14.8806 75.5813L18.2935 81.8308L59.5069 71.9257C61.2877 71.5145 63.0109 70.8836 64.6339 70.0447L76.1166 64.144C57.0343 69.984 31.7026 73.6245 14.8806 75.5813Z" fill="#F7BB8F"/>
<path d="M0 60.6856V87.9892H19.7193L24.2699 83.4386L6.06751 56.135L0 60.6856Z" fill="#4398D1"/>
<path d="M0 87.9892H19.7193L24.2699 83.4387L20.9327 78.433C14.1858 81.2179 7.1718 83.3067 0 84.6674V87.9892Z" fill="#3E8CC7"/>
<path d="M13.6518 83.4431C15.3273 83.4431 16.6855 82.0849 16.6855 80.4094C16.6855 78.7339 15.3273 77.3756 13.6518 77.3756C11.9763 77.3756 10.618 78.7339 10.618 80.4094C10.618 82.0849 11.9763 83.4431 13.6518 83.4431Z" fill="#D9D9D9"/>
</g>
<defs>
<clipPath id="clip0_2937_149">
<rect width="88" height="88" fill="white"/>
</clipPath>
</defs>
</svg>
