<svg width="53" height="53" viewBox="0 0 53 53" fill="none" xmlns="http://www.w3.org/2000/svg">
<g clip-path="url(#clip0_2937_93)">
<path d="M9.35293 38.451H3.16284V35.3334H9.35293V38.451ZM14.0294 32.2157H3.11763V29.0981H14.0294V32.2157ZM1.99998 1.55884C0.895414 1.55884 -1.52588e-05 2.45427 -1.52588e-05 3.55884V41.5686H24.4216V22.8628H42.6078V3.55884C42.6078 2.45427 41.7124 1.55884 40.6078 1.55884H27.5392V17.4674L21.3039 14.6961L15.0686 17.4674V1.55884H1.99998ZM18.1863 1.55884V12.6699L21.3039 11.2843L24.4216 12.6699V1.55884H18.1863Z" fill="#2488C9"/>
<path d="M27.539 25.9805V51.4413H50.9999C52.1044 51.4413 52.9999 50.5458 52.9999 49.4413V25.9805H27.539ZM46.1114 42.3483L43.9069 44.5528L40.2695 40.9154L36.632 44.5528L34.4275 42.3483L38.065 38.7109L34.4275 35.0734L36.632 32.8689L40.2695 36.5064L43.9069 32.8689L46.1114 35.0734L42.4739 38.7109L46.1114 42.3483Z" fill="#1050A0"/>
</g>
<defs>
<clipPath id="clip0_2937_93">
<rect width="53" height="53" fill="white"/>
</clipPath>
</defs>
</svg>
