<svg width="86" height="62" viewBox="0 0 86 62" fill="none" xmlns="http://www.w3.org/2000/svg">
<path d="M83.4632 18.8737H77.4776C77.0921 18.8737 76.7275 18.9634 76.3994 19.119C76.4406 19.7811 76.4621 20.4493 76.4621 21.1221V26.0797C77.2586 26.7649 77.9677 27.5481 78.5704 28.4113H83.4632C84.8585 28.4113 86 27.2698 86 25.8745V21.4105C86 20.0152 84.8583 18.8737 83.4632 18.8737Z" fill="#DFEBFA"/>
<path d="M80.5266 25.8745V21.4105C80.5266 20.0152 81.6683 18.8737 83.0634 18.8737H77.4774C77.0919 18.8737 76.7273 18.9634 76.3992 19.119C76.4404 19.7811 76.4619 20.4494 76.4619 21.1221V26.0797C77.2584 26.7649 77.9676 27.548 78.5702 28.4113H83.0634C81.6683 28.4113 80.5266 27.2698 80.5266 25.8745Z" fill="#B1DBFC"/>
<path d="M8.17302 26.0797V21.1221C8.17302 20.3658 8.20242 19.6161 8.25449 18.8737H2.53683C1.14152 18.8737 0 20.0152 0 21.4105V25.8745C0 27.2698 1.14152 28.4113 2.53683 28.4113H6.06485C6.66735 27.5481 7.37668 26.7649 8.17302 26.0797Z" fill="#DFEBFA"/>
<path d="M4.12716 25.8745V21.4105C4.12716 20.0152 5.26884 18.8737 6.66399 18.8737H2.53683C1.14168 18.8737 0 20.0152 0 21.4105V25.8745C0 27.2698 1.14168 28.4113 2.53683 28.4113H6.06485C6.0798 28.39 6.09542 28.3693 6.11037 28.3482C4.97943 28.0935 4.12716 27.0795 4.12716 25.8745Z" fill="#B1DBFC"/>
<path d="M15.893 23.2725H68.7422C71.8157 23.2725 74.6352 24.418 76.8082 26.3035V21.3022C76.8082 15.9924 75.532 10.9545 73.2147 7.11689C70.6912 2.93816 67.2327 0.636658 63.4761 0.636658H21.1594C17.4027 0.636658 13.9443 2.938 11.4207 7.11689C9.1034 10.9546 7.82718 15.9924 7.82718 21.3022V26.3035C9.99985 24.4182 12.8194 23.2725 15.893 23.2725Z" fill="#FF4756"/>
<path d="M13.3911 21.3024C13.3911 15.9925 14.6674 10.9547 16.9847 7.11708C19.5082 2.93835 22.9667 0.636841 26.7233 0.636841H21.1592C17.4026 0.636841 13.9441 2.93818 11.4205 7.11708C9.10324 10.9548 7.82701 15.9925 7.82701 21.3024V26.3036C9.39416 24.9438 11.2988 23.9719 13.3911 23.534V21.3024Z" fill="#FC2D39"/>
<path d="M15.893 23.2725H68.7422C70.0292 23.2725 71.2718 23.4734 72.4414 23.8448V21.3022C72.4414 16.7896 71.3914 12.5658 69.4853 9.40868C67.7848 6.59285 65.6508 5.04199 63.4761 5.04199H21.1594C18.9847 5.04199 16.8505 6.59285 15.1501 9.40868C13.2438 12.5658 12.194 16.7897 12.194 21.3022V23.8448C13.3634 23.4734 14.6061 23.2725 15.893 23.2725Z" fill="#60B8FE"/>
<path d="M17.758 21.3024C17.758 16.7897 18.808 12.566 20.7141 9.40886C22.4146 6.59286 24.5486 5.04218 26.7233 5.04218H21.1592C18.9845 5.04218 16.8503 6.59286 15.1499 9.40886C13.2437 12.566 12.1939 16.7899 12.1939 21.3024V23.8449C13.3634 23.4736 14.6061 23.2727 15.893 23.2727H17.7582V21.3024H17.758Z" fill="#23A8FE"/>
<path d="M57.9321 12.2747C52.6206 12.2747 48.3149 16.6184 48.3149 21.9766C48.3149 22.4163 48.3466 22.8484 48.4029 23.2725H52.7815C52.6792 22.8574 52.6241 22.4236 52.6241 21.9766C52.6241 19.0192 55.0005 16.6218 57.9323 16.6218C60.8638 16.6218 63.2404 19.0192 63.2404 21.9766C63.2404 22.4236 63.1853 22.8574 63.083 23.2725H67.4616C67.5177 22.8482 67.5496 22.4162 67.5496 21.9766C67.5493 16.6184 63.2436 12.2747 57.9321 12.2747Z" fill="#23A8FE"/>
<path d="M57.9321 12.2747C52.6206 12.2747 48.3149 16.6184 48.3149 21.9766C48.3149 22.4163 48.3466 22.8484 48.4029 23.2725H52.7815C52.6792 22.8574 52.6241 22.4236 52.6241 21.9766C52.6241 19.0192 55.0005 16.6218 57.9323 16.6218C60.8638 16.6218 63.2404 19.0192 63.2404 21.9766C63.2404 22.4236 63.1853 22.8574 63.083 23.2725H67.4616C67.5177 22.8482 67.5496 22.4162 67.5496 21.9766C67.5493 16.6184 63.2436 12.2747 57.9321 12.2747Z" fill="#23A8FE"/>
<path d="M53.1467 19.6569C53.9986 16.1551 56.7341 13.4017 60.2087 12.5506C59.4786 12.3718 58.7168 12.2748 57.9323 12.2748C52.6209 12.2748 48.315 16.6185 48.315 21.9767C48.315 22.4165 48.3468 22.8485 48.4029 23.2726H52.7815C52.6792 22.8575 52.6241 22.4237 52.6241 21.9767C52.6239 21.1454 52.8117 20.3587 53.1467 19.6569Z" fill="#0193FA"/>
<path d="M68.7422 23.0751H15.893C9.07149 23.0751 3.49006 28.6564 3.49006 35.4781V48.1636C3.67348 48.1107 3.86647 48.0806 4.06619 48.0806H32.9498C33.3329 47.5685 33.9419 47.2339 34.6271 47.2339H50.0082C50.6931 47.2339 51.3024 47.5685 51.6855 48.0806H80.5691C80.7689 48.0806 80.9618 48.1107 81.1452 48.1636V35.4781C81.145 28.6566 75.5638 23.0751 68.7422 23.0751Z" fill="#FF656F"/>
<path d="M11.6337 35.4781C11.6337 28.6564 17.215 23.0751 24.0367 23.0751H15.893C9.07149 23.0751 3.49006 28.6564 3.49006 35.4781V48.1636C3.67348 48.1107 3.86631 48.0808 4.06619 48.0808H11.6337V35.4781Z" fill="#FF4756"/>
<path d="M51.359 35.1869C53.659 35.1869 55.7937 33.9916 56.9957 32.0306L62.485 23.0751H22.15L27.6394 32.0306C28.8414 33.9914 30.9761 35.1869 33.2761 35.1869H51.359Z" fill="#FF4756"/>
<path d="M35.1233 32.0306L29.6339 23.0751H22.15L27.6394 32.0306C28.8414 33.9914 30.9761 35.1869 33.2761 35.1869H40.7601C38.4601 35.1869 36.3254 33.9914 35.1233 32.0306Z" fill="#FC2D39"/>
<path d="M52.5796 41.3563H32.0555C31.3388 41.3563 30.7578 40.7753 30.7578 40.0586C30.7578 39.3417 31.3388 38.7609 32.0555 38.7609H52.5796C53.2963 38.7609 53.8773 39.3419 53.8773 40.0586C53.8773 40.7753 53.2963 41.3563 52.5796 41.3563Z" fill="#FF4756"/>
<path d="M69.9691 40.5777C72.7629 40.5777 75.0278 38.3129 75.0278 35.519C75.0278 32.7252 72.7629 30.4603 69.9691 30.4603C67.1752 30.4603 64.9103 32.7252 64.9103 35.519C64.9103 38.3129 67.1752 40.5777 69.9691 40.5777Z" fill="#FFD301"/>
<path d="M14.666 40.5777C17.4599 40.5777 19.7247 38.3129 19.7247 35.519C19.7247 32.7252 17.4599 30.4603 14.666 30.4603C11.8722 30.4603 9.60731 32.7252 9.60731 35.519C9.60731 38.3129 11.8722 40.5777 14.666 40.5777Z" fill="#FFD301"/>
<path d="M69.9284 35.519C69.9284 33.6384 70.9554 31.9989 72.4782 31.127C71.7386 30.7035 70.8825 30.4601 69.9691 30.4601C67.1752 30.4601 64.9103 32.725 64.9103 35.5189C64.9103 38.3127 67.1752 40.5776 69.9691 40.5776C70.8825 40.5776 71.7384 40.3343 72.4782 39.9107C70.9552 39.0391 69.9284 37.3994 69.9284 35.519Z" fill="#FFC20C"/>
<path d="M14.6254 35.519C14.6254 33.6384 15.6523 31.9989 17.1751 31.127C16.4356 30.7035 15.5794 30.4601 14.666 30.4601C11.8722 30.4601 9.60731 32.725 9.60731 35.5189C9.60731 38.3127 11.8722 40.5776 14.666 40.5776C15.5794 40.5776 16.4354 40.3343 17.1751 39.9107C15.6523 39.0391 14.6254 37.3994 14.6254 35.519Z" fill="#FFC20C"/>
<path d="M63.0189 53.2463V58.7945C63.0189 60.2075 64.1748 61.3634 65.5878 61.3634H76.9557C78.3685 61.3634 79.5246 60.2075 79.5246 58.7945V53.2463H63.0189Z" fill="#665E68"/>
<path d="M70.5863 58.7943V53.2462H63.0189V58.7943C63.0189 60.2071 64.1748 61.3632 65.5878 61.3632H73.1551C71.7423 61.3632 70.5863 60.2073 70.5863 58.7943Z" fill="#544E55"/>
<path d="M5.11045 53.2463V58.7945C5.11045 60.2075 6.26641 61.3634 7.67936 61.3634H19.0473C20.4601 61.3634 21.6162 60.2075 21.6162 58.7945V53.2463H5.11045Z" fill="#665E68"/>
<path d="M12.6779 58.7943V53.2462H5.11045V58.7943C5.11045 60.2071 6.26641 61.3632 7.67936 61.3632H15.2469C13.8339 61.3632 12.6779 60.2073 12.6779 58.7943Z" fill="#544E55"/>
<path d="M32.704 52.516V48.4648C32.704 47.997 32.8612 47.5653 33.1228 47.2155H4.06619C2.91342 47.2155 1.9701 48.1588 1.9701 49.3115V51.6693C1.9701 52.8222 2.91342 53.7654 4.06619 53.7654H33.1228C32.8612 53.4157 32.704 52.9838 32.704 52.516Z" fill="#DFEBFA"/>
<path d="M9.5376 51.6693V49.3115C9.5376 48.1588 10.4809 47.2155 11.6337 47.2155H4.06619C2.91342 47.2155 1.9701 48.1588 1.9701 49.3115V51.6693C1.9701 52.8222 2.91342 53.7654 4.06619 53.7654H11.6337C10.4807 53.7654 9.5376 52.8222 9.5376 51.6693Z" fill="#B1DBFC"/>
<path d="M80.5689 47.2156H51.5123C51.7738 47.5653 51.9311 47.9971 51.9311 48.4649V52.5162C51.9311 52.984 51.7738 53.4156 51.5123 53.7655H80.5689C81.7217 53.7655 82.665 52.8224 82.665 51.6694V49.3117C82.665 48.1587 81.7217 47.2156 80.5689 47.2156Z" fill="#DFEBFA"/>
<path d="M50.5272 54.612H34.1079C32.9551 54.612 32.0118 53.6687 32.0118 52.516V48.4647C32.0118 47.312 32.9551 46.3687 34.1079 46.3687H50.5272C51.68 46.3687 52.6233 47.312 52.6233 48.4647V52.516C52.6233 53.6689 51.68 54.612 50.5272 54.612Z" fill="#B1DBFC"/>
<path d="M39.5793 52.516V48.4647C39.5793 47.312 40.5226 46.3687 41.6754 46.3687H34.1081C32.9553 46.3687 32.012 47.3118 32.012 48.4647V52.516C32.012 53.6687 32.9551 54.612 34.1081 54.612H41.6754C40.5225 54.6122 39.5793 53.6689 39.5793 52.516Z" fill="#8BCAFF"/>
</svg>
