<svg width="75" height="75" viewBox="0 0 75 75" fill="none" xmlns="http://www.w3.org/2000/svg">
<g clip-path="url(#clip0_2937_207)">
<path d="M74.7104 65.8719C74.7104 59.9673 70.9932 54.6844 65.4447 52.7L49.0869 46.8047L49.0806 46.8141C43.0165 53.9766 31.9695 53.9735 25.9148 46.8047L9.55536 52.7016C4.00694 54.686 0.289734 59.9673 0.289734 65.8735V75.0002H74.7104V65.8719Z" fill="#40596B"/>
<path d="M30.9664 62.0844L37.5008 52.1843L44.0446 62.0844L37.5071 74.0109L30.9664 62.0844Z" fill="#CDD6E0"/>
<path d="M27.3382 46.2982C27.4632 46.4717 27.4444 46.4717 27.3195 46.2982H27.3382Z" fill="#F8B64C"/>
<path d="M47.6961 46.2982C47.5712 46.4717 47.5555 46.4717 47.6805 46.2982H47.6961Z" fill="#F8B64C"/>
<path d="M47.6837 46.2889H47.6821V46.3074H47.6837V46.2889Z" fill="#F8B64C"/>
<path d="M47.6837 46.2889H47.6821V46.3074H47.6837V46.2889Z" fill="#F8B64C"/>
<path d="M27.3195 26.6514C27.5476 29.2701 26.2789 31.5187 24.4819 31.678C22.6882 31.8343 21.046 29.8405 20.8163 27.2218C20.5866 24.6031 21.8569 22.3545 23.6539 22.1952C25.4492 22.0389 27.0914 24.0358 27.3195 26.6514Z" fill="#F8B64C"/>
<path d="M54.2025 27.2216C53.9744 29.8373 52.3352 31.8326 50.5368 31.6748C48.7399 31.5185 47.4696 29.2701 47.6993 26.6514C47.9289 24.0326 49.5696 22.0404 51.368 22.1951C53.1618 22.3544 54.4322 24.6029 54.2025 27.2216Z" fill="#F8B64C"/>
<path d="M37.5102 4.79651C29.1727 4.79651 22.4101 11.5559 22.4101 19.8966V24.4311C22.4101 25.5873 22.4835 26.7437 22.6273 27.8889V27.892C23.3414 33.7577 25.868 39.2529 29.8571 43.617L31.2852 45.1857C32.604 46.6264 34.4617 47.4498 36.4149 47.4498H38.6024C40.5524 47.4498 42.4118 46.6295 43.7259 45.1888L45.1666 43.6169C49.1526 39.2528 51.6791 33.7512 52.4025 27.8886C52.5462 26.7385 52.6104 25.587 52.6104 24.4308V19.8964C52.6104 11.5559 45.8509 4.79651 37.5102 4.79651Z" fill="#FFD15C"/>
<path d="M47.6821 46.3046V46.2889H47.6978V40.3983C47.6947 40.3983 47.6947 40.3983 47.6947 40.3983C46.9322 41.5249 46.0932 42.6045 45.1651 43.6156L43.7276 45.1906C42.412 46.628 40.5541 47.4484 38.6041 47.4484H36.4167C34.4636 47.4484 32.6057 46.628 31.2869 45.1843L29.8588 43.6156C28.9338 42.6078 28.0979 41.528 27.3353 40.4046C27.3353 40.4046 27.3259 40.4015 27.3229 40.3983V46.2889L25.9197 46.8046C31.9744 53.9734 43.0214 53.9765 49.0854 46.8139L49.0917 46.8046L47.6995 46.3046H47.6821Z" fill="#F8B64C"/>
<g opacity="0.1">
<g opacity="0.1">
<path opacity="0.1" d="M47.6821 46.3046V46.2889H47.6978V40.3983C47.6947 40.4014 47.6884 40.4077 47.6854 40.4108C46.9229 41.5311 46.09 42.6076 45.1651 43.6154L43.7276 45.1904C42.412 46.6311 40.5542 47.4482 38.6041 47.4482H36.4167C34.4964 47.4482 32.673 46.6483 31.3604 45.2481C31.3574 45.2481 31.3511 45.2481 31.3511 45.2481L38.2964 52.1419C42.3011 51.934 46.2401 50.1731 49.084 46.8138L49.0871 46.8075V46.8044L47.6979 46.3045L47.6821 46.3046Z" fill="#40596B"/>
</g>
</g>
<path d="M27.3195 46.2889L23.2273 47.7748L30.9664 62.0844L37.5008 52.1843L27.3195 46.2889Z" fill="#F2F2F2"/>
<path d="M47.6899 46.2889L51.7837 47.7748L44.0446 62.0844L37.5102 52.1843L47.6899 46.2889Z" fill="#F2F2F2"/>
<g opacity="0.1">
<g opacity="0.1">
<path opacity="0.1" d="M27.4242 24.1419L45.9603 42.678C49.479 38.4764 51.7276 33.3451 52.4026 27.8889C52.5463 26.7357 52.6105 25.5873 52.6105 24.4311V19.8966C52.6105 12.3044 47.0011 6.0356 39.7041 4.97314L27.4242 24.1419Z" fill="#40596B"/>
</g>
</g>
<path d="M52.579 27.7309C52.579 27.7309 51.2758 27.5606 51.7118 24.7434C51.7118 24.7434 52.1353 23.7058 51.6633 22.6403C51.0414 21.2309 50.7836 19.6888 50.4789 18.1794C50.0024 15.8169 48.9102 13.0824 46.3992 12.9856C46.3992 12.9856 40.06 13.7981 37.5116 13.7981C34.96 13.7981 28.6225 12.9856 28.6225 12.9856C26.1193 13.084 25.0271 15.7997 24.5521 18.159C24.2411 19.6888 23.9598 21.2387 23.3443 22.6731C22.8927 23.7294 23.3115 24.745 23.3115 24.745C23.7474 27.5622 22.4443 27.7325 22.4443 27.7325C18.9739 25.1326 21.1475 15.2075 21.1475 15.2075C24.8304 2.0887 37.5149 2.84808 37.5149 2.84808C37.5149 2.84808 50.1946 2.0887 53.879 15.2075C53.8759 15.2059 56.0463 25.131 52.579 27.7309Z" fill="#334A5E"/>
<path d="M55.8056 13.1075C55.8056 13.1075 57.8993 25.406 37.5102 25.6872C21.0881 25.4591 19.2429 17.4294 19.1444 14.32C19.1132 13.4356 18.8241 12.584 18.3117 11.8574C16.8414 9.78245 17.357 6.90108 19.4617 5.4667C22.8133 3.17758 26.5915 1.5885 30.5696 0.785473L31.5008 0.599583C35.4648 -0.200373 39.5509 -0.200373 43.518 0.602659L44.4227 0.780785C48.4087 1.58396 52.193 3.17611 55.5525 5.46524C57.6588 6.89962 58.1775 9.78084 56.7056 11.859L55.8213 13.1075H55.8056Z" fill="#40596B"/>
<path d="M54.0696 19.6263C55.1384 18.1216 55.5931 16.6044 55.7665 15.4091C50.6946 13.7216 44.6024 12.7965 37.446 12.6997C30.3475 12.7951 24.2928 13.7153 19.2397 15.395C19.4131 16.5887 19.8678 18.1107 20.9429 19.6185C25.4507 18.0981 30.9773 17.2529 37.4477 17.1622C43.9774 17.2513 49.5368 18.1028 54.0696 19.6263Z" fill="#ACB3BA"/>
<path d="M40.8055 5.96534C40.8055 7.78718 39.3289 9.26375 37.5071 9.26375C35.6853 9.26375 34.2087 7.78718 34.2087 5.96534C34.2087 4.1435 35.6853 2.66693 37.5071 2.66693C39.3289 2.66678 40.8055 4.14336 40.8055 5.96534Z" fill="#F8B64C"/>
<path d="M41.7461 58.6156L37.5008 52.1843L33.2555 58.6156L35.3804 60.7421L33.2555 75H41.7461L39.6212 60.7421L41.7461 58.6156Z" fill="#FF7058"/>
<path d="M56.5259 54.1874L54.5353 48.7671L51.7837 47.7748L37.5071 74.0109L23.2273 47.7748L20.4757 48.7671L18.4819 54.1874L23.2273 57.0312L18.4819 63.9156L26.5945 75H48.4164L56.5259 63.9156L51.7837 57.0312L56.5259 54.1874Z" fill="#3DC9AE"/>
<path d="M52.5916 26.9341L49.5088 31.3169C48.34 32.9747 47.5838 34.8872 47.3057 36.8951C47.2838 37.0622 47.2745 37.2279 47.2806 37.392C47.3353 39.3389 46.8932 41.2623 45.6791 42.7873C44.626 44.1123 43.1462 45.5733 41.2384 46.5404C39.9962 47.1716 38.4369 46.2326 38.4587 44.8372C38.4618 44.5044 38.5072 44.1325 38.6056 43.7169H37.5103H36.4181C36.5166 44.1325 36.5588 44.5044 36.5651 44.8372C36.5869 46.2325 35.0276 47.1716 33.7823 46.5404C31.8714 45.5732 30.3916 44.1045 29.3385 42.781C28.1275 41.2576 27.6869 39.3326 27.7431 37.392C27.7462 37.2279 27.7401 37.0622 27.715 36.8951C27.4401 34.8872 26.6838 32.9733 25.515 31.3169L22.429 26.9341H21.6993L24.5775 39.2295C25.1416 42.1716 26.29 45.0029 28.1088 47.3842C28.1603 47.4545 28.215 47.5248 28.2681 47.5951C32.9306 53.5311 42.0964 53.5311 46.7558 47.5951C46.8104 47.5248 46.862 47.4545 46.9182 47.3842C48.737 45.0045 49.8838 42.1716 50.4495 39.2263L53.3246 26.934H52.5916V26.9341Z" fill="#40596B"/>
<path d="M43.5494 39.3373H31.4712C31.4712 38.9779 31.6758 38.6623 31.9868 38.5233L35.9572 36.0091C36.4431 35.7888 36.9727 35.6639 37.504 35.6639C38.0509 35.6639 38.5806 35.7888 39.0666 36.0091L43.0339 38.5233C43.3478 38.6623 43.5494 38.9763 43.5494 39.3373Z" fill="#40596B"/>
<path d="M67.5479 71.125H54.9541V75H67.5479V71.125Z" fill="#334A5E"/>
<path d="M20.0475 71.125H7.45377V75H20.0475V71.125Z" fill="#334A5E"/>
</g>
<defs>
<clipPath id="clip0_2937_207">
<rect width="75" height="75" fill="white"/>
</clipPath>
</defs>
</svg>
