<svg width="53" height="53" viewBox="0 0 53 53" fill="none" xmlns="http://www.w3.org/2000/svg">
<path d="M49.3625 47.2822C43.7234 47.2822 37.494 47.2822 35.7365 47.2822V43.9835H48.2789C47.2256 40.7767 46.2951 37.9437 46.2925 37.9357C45.2409 37.9357 41.5552 37.9357 36.8283 37.9357C33.9878 40.646 31.3615 43.1384 29.0088 46.3634L26.4998 49.8027L23.9911 46.3632C21.6172 43.1089 18.9337 40.5727 16.1721 37.9357C10.71 37.9357 6.71235 37.9357 6.70749 37.9357C6.69113 37.9857 5.76643 40.8006 4.72102 43.9835H17.2635V47.2822C14.8423 47.2822 8.72925 47.2822 3.63742 47.2822C2.64222 50.3117 1.78377 52.9254 1.75934 53H51.2406C51.2166 52.9266 50.358 50.3123 49.3625 47.2822Z" fill="#1050A0"/>
<path d="M26.5 44.5331C33.9857 34.2719 44.6432 30.3127 44.6432 18.1431C44.6432 7.74659 36.8965 0 26.5 0C16.1068 0 8.35681 7.74659 8.35681 18.1432C8.35681 30.3111 19.0177 34.2752 26.5 44.5331ZM26.5 13.8768C29.2258 13.8768 31.4481 16.0991 31.4481 18.8249C31.4481 21.5497 29.2258 23.7731 26.5 23.7731C23.774 23.7731 21.5518 21.5497 21.5518 18.8249C21.5518 16.0991 23.774 13.8768 26.5 13.8768Z" fill="#2488C9"/>
</svg>
