<svg width="63" height="63" viewBox="0 0 63 63" fill="none" xmlns="http://www.w3.org/2000/svg">
<g clip-path="url(#clip0_2937_130)">
<path d="M52.7078 48.792L42.2428 32.7167C41.4859 31.5521 40.1944 31.0293 38.9001 31.0293C38.6323 31.0293 38.0779 31.0357 37.4787 31.044C37.432 30.9656 37.3832 30.8878 37.3044 30.8348L34.6685 29.0843C34.3645 28.8825 33.9696 28.8931 33.678 29.1077L31.498 30.7166L29.3166 29.1077C29.0227 28.8931 28.6301 28.8825 28.3236 29.0843L25.6925 30.8348C25.6181 30.8833 25.5709 30.9514 25.5276 31.0227C24.9066 31.0267 24.3279 31.03 24.0841 31.03C22.7958 31.03 21.5102 31.5598 20.7579 32.7167L10.2928 48.792C9.18015 50.4985 9.63047 52.7805 11.3084 53.9361L13.6314 55.5374C15.0318 52.2026 17.3447 49.3511 20.2494 47.2693L20.8484 46.3481V46.8447C22.9532 45.4541 25.3428 44.468 27.9081 43.9848C27.1459 42.2931 26.5062 40.2779 26.0371 38.3784C25.4906 36.1619 25.17 34.1078 25.17 32.9445C25.17 32.5135 25.2257 32.0983 25.3102 31.6934L27.2139 37.9929C27.3124 38.3228 27.5977 38.5611 27.9395 38.6013C27.974 38.6052 28.0075 38.6072 28.0403 38.6072C28.3445 38.6072 28.6323 38.4465 28.7887 38.1776L30.2728 35.6214L30.6903 36.0375C29.6912 37.3593 29.2986 41.0796 29.1462 43.7956C29.9172 43.7012 30.6982 43.6384 31.4941 43.6384C32.2917 43.6384 33.0752 43.7023 33.8485 43.7966C33.696 41.0807 33.3035 37.3604 32.3019 36.0375L32.7194 35.6188L34.2082 38.1775C34.3646 38.4463 34.6483 38.6071 34.9549 38.6071C34.9877 38.6071 35.022 38.605 35.0551 38.6012C35.3966 38.5608 35.682 38.3226 35.783 37.9928L37.6855 31.7065C37.7671 32.1073 37.8207 32.5185 37.8207 32.9444C37.8207 35.1061 36.737 40.3202 35.084 43.9847C37.6541 44.4693 40.0475 45.4578 42.1525 46.8519V46.3504L42.7616 47.2837C45.6562 49.3666 47.9627 52.2132 49.3593 55.5424L51.6924 53.9361C53.3699 52.7805 53.818 50.4985 52.7078 48.792ZM28.293 35.5894L27.1851 31.9196L28.7785 30.8597L30.3635 32.0287L28.293 35.5894ZM34.7013 35.5894L32.6331 32.0286L34.2165 30.8596L35.8117 31.9195L34.7013 35.5894Z" fill="#2488C9"/>
<path d="M26.0744 54.6309L27.9659 57.1197C29.0143 56.4877 30.2295 56.1413 31.4938 56.1413C32.7605 56.1413 33.9779 56.4875 35.0264 57.1208L36.9179 54.6302C35.4431 53.2411 33.529 52.4794 31.4962 52.4794C29.4623 52.4794 27.5459 53.2423 26.0744 54.6309Z" fill="#1050A0"/>
<path d="M22.7274 20.6545C22.7915 23.9289 24.6516 26.7343 27.3618 28.191C28.5995 28.8573 29.9952 29.2694 31.5003 29.2694C33.0031 29.2694 34.3948 28.858 35.631 28.193C38.3403 26.7381 40.2075 23.9333 40.2694 20.6578C38.0339 22.2109 34.8804 23.2204 31.5003 23.2204C28.1202 23.2204 24.9659 22.2109 22.7274 20.6545Z" fill="#2488C9"/>
<path d="M22.4761 12.8798L22.4472 15.4787C22.452 17.5356 26.5021 20.2148 31.5 20.2148C36.4979 20.2148 40.5444 17.5356 40.5466 15.4787L40.5199 12.8811C41.835 12.5386 42.8556 12.0299 43.5091 11.2988C44.0212 10.7285 44.3152 10.0251 44.3152 9.14004C44.3155 5.13006 38.5724 0 31.5002 0C24.4216 0 18.6848 5.13006 18.6848 9.14004C18.6848 10.0251 18.9772 10.7273 19.487 11.2988C20.1408 12.0298 21.1626 12.5385 22.4761 12.8798Z" fill="#2488C9"/>
<path d="M31.4942 45.9104C22.0716 45.9104 14.405 53.5773 14.405 62.9999H18.7102C18.7102 62.9937 18.7102 62.9853 18.7102 62.9792V62.9752C18.8501 62.1318 19.5734 61.5174 20.4226 61.5174C20.4374 61.5174 20.4539 61.5186 20.4702 61.5186L27.1212 61.6911C26.996 62.1088 26.9092 62.5425 26.9092 63.0001H36.0832C36.0832 62.5425 35.9971 62.1088 35.8696 61.6911L42.5228 61.5186C42.5368 61.5186 42.551 61.5174 42.5682 61.5174C43.4165 61.5174 44.143 62.1318 44.282 62.9752V62.9792C44.282 62.9853 44.282 62.9937 44.282 62.9999H48.5834C48.5835 53.5773 40.9193 45.9104 31.4942 45.9104ZM38.8714 55.8128L35.3262 60.4842C34.5044 59.2382 33.0977 58.4128 31.4941 58.4128C29.8944 58.4128 28.4861 59.2374 27.6659 60.4834L24.1215 55.8142C23.5171 55.0175 23.5929 53.8947 24.3006 53.1871C26.2882 51.2007 28.8912 50.2073 31.4964 50.2073C34.101 50.2073 36.7038 51.2007 38.6946 53.1888C39.4015 53.8959 39.476 55.0165 38.8714 55.8128Z" fill="#1050A0"/>
</g>
<defs>
<clipPath id="clip0_2937_130">
<rect width="63" height="63" fill="white"/>
</clipPath>
</defs>
</svg>
