<svg width="57" height="57" viewBox="0 0 57 57" fill="none" xmlns="http://www.w3.org/2000/svg">
<path d="M56.666 20.7071L53.6767 16.7213L52.0145 28.3564C51.8623 29.4223 51.359 30.4287 50.5974 31.1902L30.1301 51.6576C28.3448 53.4431 25.9684 54.4265 23.4388 54.4265C22.6828 54.4265 21.941 54.3368 21.2241 54.166C22.3128 55.8682 24.2185 57.0001 26.3848 57.0001H50.877C54.2532 57.0001 57 54.2533 57 50.877V21.709C57 21.3478 56.8828 20.9962 56.666 20.7071Z" fill="#1050A0"/>
<path d="M34.4598 27.7433C35.3821 27.7433 36.1297 26.9956 36.1297 26.0734C36.1297 25.1511 35.3821 24.4034 34.4598 24.4034C33.5375 24.4034 32.7899 25.1511 32.7899 26.0734C32.7899 26.9956 33.5375 27.7433 34.4598 27.7433Z" fill="#2488C9"/>
<path d="M15.5666 27.7433C16.4889 27.7433 17.2366 26.9956 17.2366 26.0734C17.2366 25.1511 16.4889 24.4034 15.5666 24.4034C14.6444 24.4034 13.8967 25.1511 13.8967 26.0734C13.8967 26.9956 14.6444 27.7433 15.5666 27.7433Z" fill="#2488C9"/>
<path d="M27.7687 49.296L48.2361 28.8285C48.4916 28.573 48.6574 28.2416 48.7085 27.8839L51.0702 11.3525C51.1445 10.8321 50.9696 10.3071 50.5979 9.93548L47.0554 6.39302L42.3322 11.1163L43.513 12.2972C44.1652 12.9492 44.1652 14.0066 43.513 14.6588C43.187 14.9849 42.7596 15.148 42.3323 15.148C41.905 15.148 41.4775 14.9849 41.1516 14.6588L36.4282 9.93548C35.7761 9.28343 35.7761 8.22604 36.4282 7.57388C37.0803 6.92183 38.1377 6.92183 38.7898 7.57388L39.9707 8.75473L44.6939 4.03142L41.1514 0.488959C40.7798 0.117234 40.2548 -0.0571057 39.7345 0.0165935L23.2029 2.37831C22.8452 2.42941 22.5138 2.59517 22.2583 2.85067L1.79082 23.3181C-0.596614 25.7054 -0.596614 29.5901 1.79082 31.9774L19.1094 49.296C20.303 50.4897 21.8711 51.0865 23.439 51.0865C25.007 51.0865 26.575 50.4897 27.7687 49.296ZM34.4599 21.0636C37.2223 21.0636 39.4697 23.311 39.4697 26.0734C39.4697 28.8358 37.2223 31.0831 34.4599 31.0831C31.6976 31.0831 29.4502 28.8358 29.4502 26.0734C29.4502 23.311 31.6976 21.0636 34.4599 21.0636ZM15.5669 31.0831C12.8045 31.0831 10.5571 28.8358 10.5571 26.0734C10.5571 23.311 12.8045 21.0636 15.5669 21.0636C18.3293 21.0636 20.5767 23.311 20.5767 26.0734C20.5767 28.8358 18.3294 31.0831 15.5669 31.0831ZM21.0776 39.5519C20.9026 39.5519 20.7245 39.5242 20.5494 39.4658C19.6745 39.1741 19.2016 38.2285 19.4932 37.3535L27.3652 13.7371C27.6569 12.8622 28.6026 12.3894 29.4776 12.6809C30.3525 12.9726 30.8253 13.9182 30.5337 14.7933L22.6617 38.4096C22.4284 39.1092 21.7768 39.5519 21.0776 39.5519Z" fill="#2488C9"/>
<path d="M50.5974 2.85076C51.2495 2.19871 51.2495 1.14132 50.5974 0.489159C49.9453 -0.16289 48.8879 -0.16289 48.2358 0.489159L44.6934 4.03162L47.055 6.39322L50.5974 2.85076Z" fill="#2488C9"/>
</svg>
