<svg width="24" height="24" viewBox="0 0 24 24" fill="none" xmlns="http://www.w3.org/2000/svg">
<path d="M6.85395 15.646L4.43993 13.232C3.96692 12.76 3.33992 12.5 2.67195 12.5H0.999916C0.723916 12.5 0.499901 12.724 0.499901 13C0.499901 13.276 0.723916 13.5 0.999916 13.5H2.6719C3.06589 13.5 3.45289 13.66 3.73189 13.939L5.29287 15.5H0.999916C0.723916 15.5 0.499901 15.724 0.499901 16C0.499901 16.276 0.723916 16.5 0.999916 16.5H6.4999C6.70189 16.5 6.8839 16.378 6.9619 16.191C7.0399 16.004 6.99692 15.789 6.85395 15.646Z" fill="white"/>
<path d="M6.50003 18C6.22403 18 6.00002 18.224 6.00002 18.5V20C6.00002 20.276 5.77502 20.5 5.5 20.5H2.50001C2.22499 20.5 1.99999 20.276 1.99999 20V18C1.99999 17.724 1.77598 17.5 1.49998 17.5C1.22398 17.5 1.00001 17.724 1.00001 18V20C1.00001 20.827 1.67299 21.5 2.50001 21.5H5.5C6.32702 21.5 7 20.827 7 20V18.5C7 18.224 6.77603 18 6.50003 18Z" fill="white"/>
<path d="M21.731 9.55699C20.353 8.836 17.26 8.5 12 8.5C6.73997 8.5 3.64702 8.836 2.26898 9.55699C0.699 10.377 0 11.747 0 14C0 16.166 0.495984 18.05 0.516984 18.129C0.574969 18.348 0.772969 18.5 0.999984 18.5H5.382L7.27598 19.447C7.34597 19.482 7.42298 19.5 7.5 19.5H16.5C16.577 19.5 16.654 19.482 16.723 19.447L18.618 18.5H23C23.227 18.5 23.425 18.348 23.483 18.129C23.504 18.05 24 16.166 24 14C24 11.747 23.301 10.377 21.731 9.55699ZM22.605 17.5H18.501C18.423 17.5 18.346 17.518 18.277 17.553L16.382 18.5H7.61798L5.724 17.553C5.65402 17.518 5.577 17.5 5.49998 17.5H1.39598C1.257 16.863 0.999984 15.487 0.999984 13.9999C0.999984 12.1169 1.50197 11.086 2.73098 10.4429C3.92897 9.81691 7.047 9.49994 12 9.49994C16.953 9.49994 20.071 9.81695 21.269 10.4429C22.498 11.0859 23 12.1169 23 13.9999C23 15.487 22.743 16.863 22.605 17.5Z" fill="white"/>
<path d="M23.0002 15.5H18.7072L20.2672 13.939C20.5471 13.66 20.9332 13.5 21.3282 13.5H23.0002C23.2762 13.5 23.5002 13.276 23.5002 13C23.5002 12.724 23.2762 12.5 23.0002 12.5H21.3282C20.6602 12.5 20.0332 12.76 19.5602 13.232L17.1462 15.646C17.0042 15.789 16.9611 16.004 17.0382 16.191C17.1152 16.3781 17.2982 16.5 17.5002 16.5H23.0002C23.2762 16.5 23.5002 16.276 23.5002 16C23.5001 15.724 23.2762 15.5 23.0002 15.5Z" fill="white"/>
<path d="M17.9529 12.788C17.8699 12.612 17.694 12.5 17.4999 12.5H6.49998C6.30596 12.5 6.12999 12.612 6.04698 12.788C5.96499 12.963 5.99096 13.171 6.11598 13.32L8.61596 16.32C8.71097 16.434 8.85198 16.5 8.99996 16.5H15C15.1479 16.5 15.2889 16.434 15.384 16.32L17.8839 13.32C18.009 13.171 18.035 12.963 17.9529 12.788ZM14.765 15.5H9.23396L7.56694 13.5H16.4319L14.765 15.5Z" fill="white"/>
<path d="M21.9592 9.80102C21.3902 8.49302 19.4862 4.18202 18.8242 3.619C17.9992 2.91798 15.6362 2.5 12.5002 2.5H11.5002C8.36425 2.5 6.00124 2.91798 5.17624 3.61802C4.51422 4.18103 2.60922 8.49203 2.04124 9.80003C1.93225 10.054 2.04822 10.348 2.30125 10.458C2.55325 10.568 2.84927 10.453 2.95924 10.199C4.08822 7.60005 5.46925 4.71203 5.82424 4.38105C6.20922 4.05405 7.83822 3.50003 11.5002 3.50003H12.5002C16.1622 3.50003 17.7912 4.05405 18.1742 4.37903C18.5312 4.71203 19.9122 7.59902 21.0412 10.199C21.1232 10.388 21.3082 10.5 21.5002 10.5C21.5662 10.5 21.6352 10.487 21.6992 10.459C21.9522 10.349 22.0682 10.054 21.9592 9.80102Z" fill="white"/>
<path d="M22.4999 17.5C22.2239 17.5 21.9999 17.724 21.9999 18V20C21.9999 20.276 21.7749 20.5 21.4999 20.5H18.4999C18.2248 20.5 17.9998 20.276 17.9998 20V18.5C17.9998 18.224 17.7758 18 17.4998 18C17.2238 18 16.9998 18.224 16.9998 18.5V20C16.9998 20.827 17.6728 21.5 18.4998 21.5H21.4998C22.3268 21.5 22.9998 20.827 22.9998 20V18C22.9999 17.724 22.7759 17.5 22.4999 17.5Z" fill="white"/>
</svg>
