<svg width="20" height="24" viewBox="0 0 20 24" fill="none" xmlns="http://www.w3.org/2000/svg">
<path d="M19.6489 22.4141L19.1145 20.7477C18.8695 20.0957 18.4883 19.5035 17.9962 19.0106C17.6656 18.7243 17.3164 18.4603 16.9509 18.2204L16.9134 18.1961C16.7514 18.1032 16.5836 18.0209 16.411 17.9497C15.8257 17.7096 15.1997 17.5845 14.5672 17.5813L13.2504 16.2648C13.2494 15.9076 13.2705 15.5508 13.3134 15.1962C13.3633 14.7727 13.4346 14.352 13.5269 13.9357C14.0223 13.3934 14.3278 12.7046 14.3973 11.9734C14.4478 11.988 14.4999 11.9967 14.5524 11.9993C14.6253 11.9992 14.6977 11.9872 14.7668 11.9638C14.9731 11.895 15.6 11.686 15.6 9.17902C15.6 8.90948 15.6 8.08955 15.0481 7.84191C14.9595 7.80338 14.8639 7.78359 14.7673 7.78378C14.8285 7.33936 14.8038 6.8873 14.6946 6.4522C15.7925 5.74697 16.4 4.82433 16.4 3.83644C16.4 1.68516 13.5887 0 10 0C6.41134 0 3.60006 1.68516 3.60006 3.83634C3.60006 4.82414 4.20756 5.74645 5.30448 6.45323C5.19611 6.88814 5.17183 7.33969 5.23295 7.78369C5.1363 7.78336 5.04063 7.80314 4.95203 7.84181C4.40008 8.08945 4.40008 8.90939 4.40008 9.17892C4.40008 11.6859 5.02703 11.8949 5.23328 11.9637C5.30238 11.9871 5.3748 11.9991 5.44773 11.9992C5.50023 11.9966 5.55231 11.9879 5.6028 11.9733C5.67227 12.7046 5.97775 13.3934 6.47322 13.9356C6.56575 14.3527 6.637 14.7741 6.68678 15.1984C6.72972 15.5522 6.75072 15.9083 6.74973 16.2647L5.43302 17.5812C4.80002 17.5845 4.17362 17.7097 3.58802 17.95C3.41584 18.0212 3.24845 18.1034 3.08683 18.1961L3.04933 18.2203C2.68431 18.4601 2.33552 18.7237 2.00519 19.0094C1.50752 19.5068 1.12342 20.106 0.879391 20.766L0.350876 22.4148C0.149829 23.047 0.499375 23.7225 1.13163 23.9236C1.24952 23.9611 1.37247 23.9801 1.49617 23.9801H9.47509C9.51545 23.9932 9.55764 24 9.60011 24H10.4001C10.4403 23.9999 10.4801 23.9932 10.5181 23.9801H18.5041C19.1674 23.9805 19.7054 23.443 19.7057 22.7797C19.7057 22.6556 19.6866 22.5323 19.6489 22.4141ZM13.8114 17.9574L13.1647 18.5109C12.708 18.2259 12.2148 18.0041 11.6985 17.8515L12.7794 16.925L13.8114 17.9574ZM10.7076 17.6473C10.2376 17.5909 9.76248 17.5909 9.29247 17.6472L7.54773 16.1511C7.54464 15.8018 7.52247 15.453 7.48131 15.1062C7.47709 15.0688 7.46969 15.0298 7.46509 14.9923C7.70669 15.2166 7.96295 15.4438 8.25123 15.6773C9.27034 16.5036 10.7286 16.5039 11.7481 15.6781C12.0366 15.4445 12.2929 15.2171 12.5347 14.9926C12.5302 15.0292 12.5229 15.0675 12.5188 15.1039C12.4777 15.4515 12.4555 15.8011 12.4524 16.1511L10.7076 17.6473ZM14.7173 8.58712C14.7866 8.77627 14.8148 8.97802 14.8001 9.17892C14.8001 10.4313 14.6259 10.9918 14.5262 11.1652C14.4632 11.1099 14.4058 11.0483 14.3551 10.9814C14.3321 10.2028 14.4088 9.42441 14.5834 8.66527C14.6243 8.6333 14.6693 8.607 14.7173 8.58712ZM4.40003 3.83634C4.40003 2.19066 6.96447 0.800016 10 0.800016C13.0356 0.800016 15.6001 2.19066 15.6001 3.83634C15.5841 4.29998 15.4013 4.74234 15.0853 5.082C15.12 5.04356 15.1479 4.99964 15.1681 4.95197C15.2108 4.85517 15.2108 4.74487 15.1681 4.64808C15.1478 4.59956 15.1194 4.55494 15.0841 4.51603C15.065 4.49883 15.0449 4.4828 15.0239 4.46798C15.0017 4.4528 14.9775 4.4407 14.9521 4.43203C14.9294 4.42055 14.9052 4.41239 14.8802 4.4078C14.6919 4.36505 14.5008 4.46752 14.4322 4.64803C14.3895 4.74483 14.3895 4.85512 14.4322 4.95192C14.4525 5.00039 14.4809 5.04502 14.5162 5.08397C14.6736 5.23847 14.9257 5.2387 15.0834 5.08444C14.9104 5.28483 14.715 5.46464 14.5008 5.62027C14.4684 5.60902 14.4345 5.60217 14.4002 5.59992H5.60008C5.56544 5.60217 5.53131 5.60906 5.4985 5.62045C4.78797 5.09709 4.40003 4.47469 4.40003 3.83634ZM13.6922 6.39998C13.1067 6.82383 11.7692 7.2 10 7.2C8.22934 7.2 6.89106 6.82303 6.30709 6.39998H13.6922ZM5.64512 10.9813C5.59441 11.0482 5.53703 11.1098 5.47389 11.1652C5.37428 10.9918 5.20005 10.4312 5.20005 9.17892C5.18533 8.97802 5.21359 8.77627 5.28283 8.58712C5.33083 8.60742 5.37592 8.63395 5.41698 8.66602C5.5915 9.42488 5.66819 10.203 5.64512 10.9813ZM6.40005 11.9469C6.40005 11.8586 6.40356 11.7699 6.41059 11.6879C6.52825 10.4811 6.42527 9.26292 6.1067 8.09297C6.03733 7.83389 6.00147 7.56703 6.00006 7.29881C6.00006 7.25077 6.00766 7.20441 6.00991 7.15683C6.86167 7.68042 8.32094 8.00002 10 8.00002C11.6793 8.00002 13.1388 7.68038 13.9901 7.15725C13.9924 7.20464 14 7.25105 14 7.29886C13.9988 7.56544 13.9633 7.83075 13.8946 8.08833C13.5753 9.25884 13.472 10.4777 13.5895 11.6852C13.5965 11.7699 13.6 11.8586 13.6 11.9469C13.6 12.7215 12.7633 13.8258 11.2434 15.057C10.5184 15.6451 9.48053 15.6448 8.75589 15.0563C7.23677 13.8258 6.40005 12.7215 6.40005 11.9469ZM7.22078 16.925L8.30163 17.8516C7.78534 18.0042 7.29213 18.2259 6.83538 18.5109L6.18873 17.9575L7.22078 16.925ZM1.49617 23.1801C1.36797 23.1809 1.24722 23.1198 1.17194 23.016C1.09572 22.9131 1.07374 22.7797 1.11297 22.6578L1.63483 21.0281C1.83981 20.482 2.15936 19.9861 2.57195 19.5738C2.60631 19.539 2.70672 19.457 3.50045 18.8812C3.62655 18.8098 3.75691 18.746 3.89069 18.6902C4.38625 18.4867 4.91669 18.3814 5.45242 18.3803L6.16206 18.9877C6.02186 19.1049 5.88625 19.2279 5.75706 19.3571C4.73294 20.3781 4.11559 21.7371 4.02053 23.1801H1.49617V23.1801ZM6.42386 23.1801C6.56153 22.026 7.24572 21.0086 8.26253 20.4457C8.35122 20.3962 8.44338 20.3536 8.53595 20.3122L9.10825 23.1801H6.42386ZM10.8917 23.1801L11.4641 20.3123C11.5571 20.3539 11.6499 20.3968 11.7395 20.4469C12.7553 21.0099 13.4387 22.0268 13.5762 23.1801H10.8917ZM14.3792 23.1801C14.2392 21.7345 13.3968 20.4504 12.1266 19.7465C11.8577 19.5969 11.5734 19.4769 11.2786 19.3887C11.272 19.3867 11.2657 19.3885 11.2592 19.3869C11.2525 19.3853 11.2475 19.3807 11.2406 19.3793C11.2196 19.3777 11.1985 19.3778 11.1774 19.3797C11.1523 19.3774 11.1271 19.3776 11.1021 19.3801C11.0755 19.3854 11.0497 19.3935 11.0248 19.4042C10.976 19.4175 10.9321 19.4445 10.8983 19.4821C10.8795 19.4976 10.8622 19.5149 10.8467 19.5337C10.8316 19.5562 10.8188 19.5802 10.8086 19.6053C10.798 19.6219 10.7887 19.6394 10.7808 19.6574C10.7789 19.664 10.7807 19.6703 10.7791 19.6769C10.7775 19.6836 10.7728 19.6885 10.7715 19.6953L10.0759 23.1801H9.92416L9.22858 19.6953C9.22727 19.6886 9.22263 19.6836 9.22098 19.677C9.21944 19.6704 9.22117 19.664 9.21925 19.6574C9.21133 19.6391 9.20191 19.6215 9.19112 19.6048C9.18095 19.5799 9.1683 19.5562 9.15334 19.5338C9.13741 19.5145 9.11969 19.4969 9.10033 19.481C9.06639 19.4436 9.02238 19.4167 8.97353 19.4037C8.94916 19.3932 8.92375 19.3853 8.89769 19.38C8.8727 19.3775 8.84753 19.3774 8.8225 19.3796C8.80155 19.3778 8.7805 19.3776 8.7595 19.3793C8.75266 19.3806 8.74769 19.3853 8.74098 19.3869C8.73447 19.3885 8.72809 19.3867 8.72158 19.3886C8.42748 19.4766 8.1438 19.5962 7.87548 19.7453C6.60423 20.4491 5.76105 21.7337 5.62098 23.18H4.81647C4.91266 21.949 5.44708 20.7932 6.3227 19.9226C6.53959 19.7058 6.77467 19.5081 7.02545 19.3316C8.81434 18.0916 11.1848 18.0915 12.9739 19.3312C13.225 19.5077 13.4604 19.7055 13.6774 19.9226C14.5531 20.7932 15.0875 21.949 15.1837 23.18H14.3792V23.1801ZM18.8282 23.016C18.7529 23.1198 18.6321 23.1809 18.5039 23.1801H15.9795C15.8845 21.7371 15.2672 20.378 14.243 19.357C14.1139 19.2279 13.9782 19.105 13.838 18.9877L14.5477 18.3803C15.083 18.3814 15.613 18.4866 16.1082 18.6899C16.2425 18.7457 16.3732 18.8096 16.4996 18.8812C17.2934 19.457 17.3938 19.539 17.4293 19.575C17.8363 19.9829 18.153 20.4717 18.359 21.0098L18.8867 22.657C18.9264 22.7791 18.9046 22.9128 18.8282 23.016Z" fill="white"/>
</svg>
